ffmpeg version 4.2.4-1ubuntu0.1 Copyright (c) 2000-2020 the FFmpeg developers
  built with gcc 9 (Ubuntu 9.3.0-10ubuntu2)
  configuration: --prefix=/usr --extra-version=1ubuntu0.1 --toolchain=hardened --libdir=/usr/lib/x86_64-linux-gnu --incdir=/usr/include/x86_64-linux-gnu --arch=amd64 --enable-gpl --disable-stripping --enable-avresample --disable-filter=resample --enable-avisynth --enable-gnutls --enable-ladspa --enable-libaom --enable-libass --enable-libbluray --enable-libbs2b --enable-libcaca --enable-libcdio --enable-libcodec2 --enable-libflite --enable-libfontconfig --enable-libfreetype --enable-libfribidi --enable-libgme --enable-libgsm --enable-libjack --enable-libmp3lame --enable-libmysofa --enable-libopenjpeg --enable-libopenmpt --enable-libopus --enable-libpulse --enable-librsvg --enable-librubberband --enable-libshine --enable-libsnappy --enable-libsoxr --enable-libspeex --enable-libssh --enable-libtheora --enable-libtwolame --enable-libvidstab --enable-libvorbis --enable-libvpx --enable-libwavpack --enable-libwebp --enable-libx265 --enable-libxml2 --enable-libxvid --enable-libzmq --enable-libzvbi --enable-lv2 --enable-omx --enable-openal --enable-opencl --enable-opengl --enable-sdl2 --enable-libdc1394 --enable-libdrm --enable-libiec61883 --enable-nvenc --enable-chromaprint --enable-frei0r --enable-libx264 --enable-shared
  libavutil      56. 31.100 / 56. 31.100
  libavcodec     58. 54.100 / 58. 54.100
  libavformat    58. 29.100 / 58. 29.100
  libavdevice    58.  8.100 / 58.  8.100
  libavfilter     7. 57.100 /  7. 57.100
  libavresample   4.  0.  0 /  4.  0.  0
  libswscale      5.  5.100 /  5.  5.100
  libswresample   3.  5.100 /  3.  5.100
  libpostproc    55.  5.100 / 55.  5.100
[matroska,webm @ 0x5652b1986700] Estimating duration from bitrate, this may be inaccurate
Guessed Channel Layout for Input Stream #0.0 : mono
Input #0, matroska,webm, from './audio/68a4c69d-98c0-45cf-acee-24c5fc965baa_123@123.wav':
  Metadata:
    encoder         : Chrome
  Duration: 00:00:00.26, start: 0.000000, bitrate: 1540 kb/s
    Stream #0:0(eng): Audio: pcm_f32le, 48000 Hz, mono, flt, 1536 kb/s (default)
Stream mapping:
  Stream #0:0 -> #0:0 (pcm_f32le (native) -> pcm_s16le (native))
Press [q] to stop, [?] for help
Output #0, s16le, to './audio/123@123/68a4c69d-98c0-45cf-acee-24c5fc965baa_123@123.pcm':
  Metadata:
    encoder         : Lavf58.29.100
    Stream #0:0(eng): Audio: pcm_s16le, 22050 Hz, mono, s16, 352 kb/s (default)
    Metadata:
      encoder         : Lavc58.54.100 pcm_s16le
size=      11kB time=00:00:00.26 bitrate= 352.8kbits/s speed= 165x    
video:0kB audio:11kB subtitle:0kB other streams:0kB global headers:0kB muxing overhead: 0.000000%
ffmpeg version 4.2.4-1ubuntu0.1 Copyright (c) 2000-2020 the FFmpeg developers
  built with gcc 9 (Ubuntu 9.3.0-10ubuntu2)
  configuration: --prefix=/usr --extra-version=1ubuntu0.1 --toolchain=hardened --libdir=/usr/lib/x86_64-linux-gnu --incdir=/usr/include/x86_64-linux-gnu --arch=amd64 --enable-gpl --disable-stripping --enable-avresample --disable-filter=resample --enable-avisynth --enable-gnutls --enable-ladspa --enable-libaom --enable-libass --enable-libbluray --enable-libbs2b --enable-libcaca --enable-libcdio --enable-libcodec2 --enable-libflite --enable-libfontconfig --enable-libfreetype --enable-libfribidi --enable-libgme --enable-libgsm --enable-libjack --enable-libmp3lame --enable-libmysofa --enable-libopenjpeg --enable-libopenmpt --enable-libopus --enable-libpulse --enable-librsvg --enable-librubberband --enable-libshine --enable-libsnappy --enable-libsoxr --enable-libspeex --enable-libssh --enable-libtheora --enable-libtwolame --enable-libvidstab --enable-libvorbis --enable-libvpx --enable-libwavpack --enable-libwebp --enable-libx265 --enable-libxml2 --enable-libxvid --enable-libzmq --enable-libzvbi --enable-lv2 --enable-omx --enable-openal --enable-opencl --enable-opengl --enable-sdl2 --enable-libdc1394 --enable-libdrm --enable-libiec61883 --enable-nvenc --enable-chromaprint --enable-frei0r --enable-libx264 --enable-shared
  libavutil      56. 31.100 / 56. 31.100
  libavcodec     58. 54.100 / 58. 54.100
  libavformat    58. 29.100 / 58. 29.100
  libavdevice    58.  8.100 / 58.  8.100
  libavfilter     7. 57.100 /  7. 57.100
  libavresample   4.  0.  0 /  4.  0.  0
  libswscale      5.  5.100 /  5.  5.100
  libswresample   3.  5.100 /  3.  5.100
  libpostproc    55.  5.100 / 55.  5.100
[s16le @ 0x55c862cc4700] Estimating duration from bitrate, this may be inaccurate
Guessed Channel Layout for Input Stream #0.0 : mono
Input #0, s16le, from './audio/123@123/68a4c69d-98c0-45cf-acee-24c5fc965baa_123@123.pcm':
  Duration: 00:00:00.26, bitrate: 352 kb/s
    Stream #0:0: Audio: pcm_s16le, 22050 Hz, mono, s16, 352 kb/s
Stream mapping:
  Stream #0:0 -> #0:0 (pcm_s16le (native) -> pcm_s16le (native))
Press [q] to stop, [?] for help
Output #0, wav, to './audio/123@123/68a4c69d-98c0-45cf-acee-24c5fc965baa_123@123.wav':
  Metadata:
    ISFT            : Lavf58.29.100
    Stream #0:0: Audio: pcm_s16le ([1][0][0][0] / 0x0001), 22050 Hz, mono, s16, 352 kb/s
    Metadata:
      encoder         : Lavc58.54.100 pcm_s16le
size=      11kB time=00:00:00.26 bitrate= 355.2kbits/s speed= 255x    
video:0kB audio:11kB subtitle:0kB other streams:0kB global headers:0kB muxing overhead: 0.680272%
ffmpeg version 4.2.4-1ubuntu0.1 Copyright (c) 2000-2020 the FFmpeg developers
  built with gcc 9 (Ubuntu 9.3.0-10ubuntu2)
  configuration: --prefix=/usr --extra-version=1ubuntu0.1 --toolchain=hardened --libdir=/usr/lib/x86_64-linux-gnu --incdir=/usr/include/x86_64-linux-gnu --arch=amd64 --enable-gpl --disable-stripping --enable-avresample --disable-filter=resample --enable-avisynth --enable-gnutls --enable-ladspa --enable-libaom --enable-libass --enable-libbluray --enable-libbs2b --enable-libcaca --enable-libcdio --enable-libcodec2 --enable-libflite --enable-libfontconfig --enable-libfreetype --enable-libfribidi --enable-libgme --enable-libgsm --enable-libjack --enable-libmp3lame --enable-libmysofa --enable-libopenjpeg --enable-libopenmpt --enable-libopus --enable-libpulse --enable-librsvg --enable-librubberband --enable-libshine --enable-libsnappy --enable-libsoxr --enable-libspeex --enable-libssh --enable-libtheora --enable-libtwolame --enable-libvidstab --enable-libvorbis --enable-libvpx --enable-libwavpack --enable-libwebp --enable-libx265 --enable-libxml2 --enable-libxvid --enable-libzmq --enable-libzvbi --enable-lv2 --enable-omx --enable-openal --enable-opencl --enable-opengl --enable-sdl2 --enable-libdc1394 --enable-libdrm --enable-libiec61883 --enable-nvenc --enable-chromaprint --enable-frei0r --enable-libx264 --enable-shared
  libavutil      56. 31.100 / 56. 31.100
  libavcodec     58. 54.100 / 58. 54.100
  libavformat    58. 29.100 / 58. 29.100
  libavdevice    58.  8.100 / 58.  8.100
  libavfilter     7. 57.100 /  7. 57.100
  libavresample   4.  0.  0 /  4.  0.  0
  libswscale      5.  5.100 /  5.  5.100
  libswresample   3.  5.100 /  3.  5.100
  libpostproc    55.  5.100 / 55.  5.100
[matroska,webm @ 0x559681299700] Estimating duration from bitrate, this may be inaccurate
Guessed Channel Layout for Input Stream #0.0 : mono
Input #0, matroska,webm, from './audio/68a4c69d-98c0-45cf-acee-24c5fc965baa_123@123.wav':
  Metadata:
    encoder         : Chrome
  Duration: 00:00:00.26, start: 0.000000, bitrate: 1540 kb/s
    Stream #0:0(eng): Audio: pcm_f32le, 48000 Hz, mono, flt, 1536 kb/s (default)
Stream mapping:
  Stream #0:0 -> #0:0 (pcm_f32le (native) -> pcm_s16le (native))
Press [q] to stop, [?] for help
Output #0, s16le, to './audio/123@123/68a4c69d-98c0-45cf-acee-24c5fc965baa_123@123.pcm':
  Metadata:
    encoder         : Lavf58.29.100
    Stream #0:0(eng): Audio: pcm_s16le, 22050 Hz, mono, s16, 352 kb/s (default)
    Metadata:
      encoder         : Lavc58.54.100 pcm_s16le
size=      11kB time=00:00:00.26 bitrate= 352.8kbits/s speed= 159x    
video:0kB audio:11kB subtitle:0kB other streams:0kB global headers:0kB muxing overhead: 0.000000%
ffmpeg version 4.2.4-1ubuntu0.1 Copyright (c) 2000-2020 the FFmpeg developers
  built with gcc 9 (Ubuntu 9.3.0-10ubuntu2)
  configuration: --prefix=/usr --extra-version=1ubuntu0.1 --toolchain=hardened --libdir=/usr/lib/x86_64-linux-gnu --incdir=/usr/include/x86_64-linux-gnu --arch=amd64 --enable-gpl --disable-stripping --enable-avresample --disable-filter=resample --enable-avisynth --enable-gnutls --enable-ladspa --enable-libaom --enable-libass --enable-libbluray --enable-libbs2b --enable-libcaca --enable-libcdio --enable-libcodec2 --enable-libflite --enable-libfontconfig --enable-libfreetype --enable-libfribidi --enable-libgme --enable-libgsm --enable-libjack --enable-libmp3lame --enable-libmysofa --enable-libopenjpeg --enable-libopenmpt --enable-libopus --enable-libpulse --enable-librsvg --enable-librubberband --enable-libshine --enable-libsnappy --enable-libsoxr --enable-libspeex --enable-libssh --enable-libtheora --enable-libtwolame --enable-libvidstab --enable-libvorbis --enable-libvpx --enable-libwavpack --enable-libwebp --enable-libx265 --enable-libxml2 --enable-libxvid --enable-libzmq --enable-libzvbi --enable-lv2 --enable-omx --enable-openal --enable-opencl --enable-opengl --enable-sdl2 --enable-libdc1394 --enable-libdrm --enable-libiec61883 --enable-nvenc --enable-chromaprint --enable-frei0r --enable-libx264 --enable-shared
  libavutil      56. 31.100 / 56. 31.100
  libavcodec     58. 54.100 / 58. 54.100
  libavformat    58. 29.100 / 58. 29.100
  libavdevice    58.  8.100 / 58.  8.100
  libavfilter     7. 57.100 /  7. 57.100
  libavresample   4.  0.  0 /  4.  0.  0
  libswscale      5.  5.100 /  5.  5.100
  libswresample   3.  5.100 /  3.  5.100
  libpostproc    55.  5.100 / 55.  5.100
[s16le @ 0x55a871f14700] Estimating duration from bitrate, this may be inaccurate
Guessed Channel Layout for Input Stream #0.0 : mono
Input #0, s16le, from './audio/123@123/68a4c69d-98c0-45cf-acee-24c5fc965baa_123@123.pcm':
  Duration: 00:00:00.26, bitrate: 352 kb/s
    Stream #0:0: Audio: pcm_s16le, 22050 Hz, mono, s16, 352 kb/s
Stream mapping:
  Stream #0:0 -> #0:0 (pcm_s16le (native) -> pcm_s16le (native))
Press [q] to stop, [?] for help
Output #0, wav, to './audio/123@123/68a4c69d-98c0-45cf-acee-24c5fc965baa_123@123.wav':
  Metadata:
    ISFT            : Lavf58.29.100
    Stream #0:0: Audio: pcm_s16le ([1][0][0][0] / 0x0001), 22050 Hz, mono, s16, 352 kb/s
    Metadata:
      encoder         : Lavc58.54.100 pcm_s16le
size=      11kB time=00:00:00.26 bitrate= 355.2kbits/s speed= 278x    
video:0kB audio:11kB subtitle:0kB other streams:0kB global headers:0kB muxing overhead: 0.680272%
